# xmcd
#
# Track frame offsets:
#	183
#	14325
#	24368
#	35385
#	46935
#	57393
#	70280
#	79793
#	92418
#	103440
#	113640
#	124180
#	138488
#	153090
#	164713
#	178988
#	186743
#	203635
#	215328
#	227303
#	243435
#	253620
#	265003
#	275783
#	285663
#
# Disc length: 3963 seconds
#
# Revision: 0
# Processed by: cddbd v1.5.1PL2 Copyright (c) Steve Scherf et al.
# Submitted via: dBpowerAMP V4.0
#
DISCID=6a0f7919
DTITLE=Paragons and The Jasters - Paragons vs. The Jesters
DYEAR=1900
DGENRE=Doo-Wop
TTITLE0=Paragons - Florence Don't Leave Me
TTITLE1=Jesters - Sally Green
TTITLE2=Paragons - Kneel And Pray
TTITLE3=Jesters - Come And Let me Show You
TTITLE4=Paragons - Just a Memory
TTITLE5=Jesters - Doen in Uncle Henry's Basement
TTITLE6=Paragons - Don't Cry Baby
TTITLE7=Jesters - Tutti Frutti
TTITLE8=Paragons - so You Will Know
TTITLE9=Jesters - That's How it Goes
TTITLE10=Paragons - Two Hearts Are Better Than One
TTITLE11=The Jesters - The Wind (Live)
TTITLE12=Paragons - Begin The Beguine
TTITLE13=Jesters - I Laughed (Live)
TTITLE14=Paragons - The Mist of The Night
TTITLE15=Jesters - Down on my Knees (Live)
TTITLE16=Paragons - Danny Boy
TTITLE17=Jesters - - What Now my Love (Acapella)
TTITLE18=Paragons - Blue Velvet
TTITLE19=Jesters - The Beating of my Heart (Acapella)
TTITLE20=Paragons - Wedding Bells
TTITLE21=Paragons - Time After Time
TTITLE22=Paragons - Hey Baby
TTITLE23=Paragons - Baby Take my Hand
TTITLE24=Paragons - If
EXTD=War Between The Paragons and The Jesters
EXTT0=
EXTT1=
EXTT2=
EXTT3=
EXTT4=
EXTT5=
EXTT6=
EXTT7=
EXTT8=
EXTT9=
EXTT10=
EXTT11=
EXTT12=
EXTT13=
EXTT14=
EXTT15=
EXTT16=
EXTT17=
EXTT18=
EXTT19=
EXTT20=
EXTT21=
EXTT22=
EXTT23=
EXTT24=
PLAYORDER=
